<?xml version="1.0" standalone="no"?><!DOCTYPE svg PUBLIC "-//W3C//DTD SVG 1.1//EN" "http://www.w3.org/Graphics/SVG/1.1/DTD/svg11.dtd"><svg t="1567690729945" class="icon" viewBox="0 0 1024 1024" version="1.1" xmlns="http://www.w3.org/2000/svg" p-id="2073" xmlns:xlink="http://www.w3.org/1999/xlink" width="200" height="200"><defs><style type="text/css"></style></defs><path d="M512 1024C229.6832 1024 0 794.32192 0 512 0 229.6832 229.6832 0 512 0c282.32192 0 512 229.6832 512 512 0 282.32192-229.67808 512-512 512z m0-921.6c-225.85344 0-409.6 183.74656-409.6 409.6s183.74656 409.6 409.6 409.6 409.6-183.74656 409.6-409.6-183.74656-409.6-409.6-409.6z" fill="#BFBFF7" p-id="2074"></path><path d="M102.4 512H0C0 229.6832 229.6832 0 512 0v102.4c-225.85344 0-409.6 183.74656-409.6 409.6z" fill="#7575F9" p-id="2075"></path></svg>